<?xml version="1.0" encoding="UTF-8"?>
<!-- Created with Inkscape (http://www.inkscape.org/) -->
<svg width="797.01" height="151.92" version="1.1" viewBox="0 0 210.88 40.195" xmlns="http://www.w3.org/2000/svg" xmlns:cc="http://creativecommons.org/ns#" xmlns:dc="http://purl.org/dc/elements/1.1/" xmlns:rdf="http://www.w3.org/1999/02/22-rdf-syntax-ns#" preserveAspectRatio="none">
 <metadata>
  <rdf:RDF>
   <cc:Work rdf:about="">
    <dc:format>image/svg+xml</dc:format>
    <dc:type rdf:resource="http://purl.org/dc/dcmitype/StillImage"/>
    <dc:title/>
   </cc:Work>
  </rdf:RDF>
 </metadata>
 <g transform="translate(0 -257.34)">
  <path transform="matrix(.26458 0 0 .26458 0 243)" d="m797.01 79.094c-4.4707 3.8662-8.7736 7.7011-13.658 11.629-3.912 3.1457-7.9524 6.297-12.117 9.4355-4.1648 3.1386-8.453 6.2634-12.859 9.3535s-8.9316 6.1463-13.568 9.1465c-4.6367 3.0002-9.3864 5.9457-14.242 8.8145-4.8558 2.8688-9.8172 5.6614-14.881 8.3574-5.0636 2.696-10.23 5.2936-15.49 7.7754s-10.615 4.848-16.061 7.0742c-5.4455 2.2262-10.98 4.313-16.6 6.2422-5.6196 1.9292-11.325 3.7003-17.107 5.291-5.7824 1.5907-11.642 3.0021-17.576 4.2129s-11.941 2.2202-18.016 3.0098c-6.0742 0.78953-12.215 1.3587-18.418 1.6855-6.2032 0.32682-12.468 0.4117-18.789 0.23438s-12.699-0.61696-19.127-1.3398c-6.4276-0.72288-12.905-1.7292-19.428-3.0391-6.5228-1.3099-13.09-2.9231-19.697-4.8613-6.6068-1.9383-13.254-4.2005-19.934-6.8086-6.6796-2.6081-13.392-5.5615-20.133-8.8809-6.7411-3.3193-13.511-7.0061-20.303-11.078-6.7914-4.072-13.603-8.5304-20.434-13.396-6.8304-4.8661-13.681-9.4223-20.541-13.684s-13.731-8.2265-20.605-11.912c-6.8743-3.6857-13.752-7.0912-20.625-10.23s-13.74-6.0127-20.596-8.6348c-6.8555-2.6221-13.699-4.9929-20.521-7.127-6.8225-2.1341-13.625-4.0317-20.398-5.707-6.7739-1.6753-13.519-3.1292-20.229-4.375s-13.382-2.2835-20.012-3.1289c-6.6295-0.84542-13.214-1.4984-19.748-1.9727-6.5337-0.47429-13.017-0.76998-19.439-0.90234-6.4223-0.13236-12.785-0.10028-19.08 0.08008-6.2952 0.18036-12.521 0.50879-18.674 0.97266-6.1524 0.46387-12.231 1.0631-18.225 1.7812-5.9938 0.71817-11.903 1.5548-17.723 2.498s-11.55 1.9917-17.18 3.1309c-5.6297 1.1391-11.16 2.37-16.584 3.6758-5.4241 1.3058-10.741 2.6876-15.943 4.1309s-10.292 2.9485-15.258 4.5c-9.9316 3.103-19.374 6.3931-28.264 9.7539s-17.225 6.7909-24.947 10.176c-7.7218 3.3848-14.829 6.7232-21.258 9.8984-6.4286 3.1752-12.178 6.188-17.187 8.9199-2.176 1.1866-3.6438 2.0732-5.5352 3.1445v89.176h797.01z" fill="#fff"/>
 </g>
</svg>
